<?xml version="1.0" encoding="UTF-8" standalone="no"?>
<!-- Created with Inkscape (http://www.inkscape.org/) -->

<svg
   xmlns:dc="http://purl.org/dc/elements/1.1/"
   xmlns:cc="http://creativecommons.org/ns#"
   xmlns:rdf="http://www.w3.org/1999/02/22-rdf-syntax-ns#"
   xmlns:svg="http://www.w3.org/2000/svg"
   xmlns="http://www.w3.org/2000/svg"
   xmlns:xlink="http://www.w3.org/1999/xlink"
   xmlns:sodipodi="http://sodipodi.sourceforge.net/DTD/sodipodi-0.dtd"
   xmlns:inkscape="http://www.inkscape.org/namespaces/inkscape"
   width="107"
   height="96"
   id="svg11252"
   version="1.1"
   inkscape:version="0.48.1 r9760"
   sodipodi:docname="app-hover.svg"
   inkscape:export-filename="/home/garrett/.themes/Waitwait/gnome-shell/app-hover.png"
   inkscape:export-xdpi="90"
   inkscape:export-ydpi="90">
  <metadata
     id="metadata19">
    <rdf:RDF>
      <cc:Work
         rdf:about="">
        <dc:format>image/svg+xml</dc:format>
        <dc:type
           rdf:resource="http://purl.org/dc/dcmitype/StillImage" />
        <dc:title></dc:title>
      </cc:Work>
    </rdf:RDF>
  </metadata>
  <sodipodi:namedview
     pagecolor="#ffffff"
     bordercolor="#666666"
     borderopacity="0.21960784"
     objecttolerance="10"
     gridtolerance="10"
     guidetolerance="10"
     inkscape:pageopacity="0"
     inkscape:pageshadow="2"
     inkscape:window-width="1440"
     inkscape:window-height="847"
     id="namedview17"
     showgrid="false"
     fit-margin-top="0"
     fit-margin-left="0"
     fit-margin-right="0"
     fit-margin-bottom="0"
     showborder="true"
     inkscape:showpageshadow="false"
     inkscape:zoom="1"
     inkscape:cx="-6.7823822"
     inkscape:cy="1.6773844"
     inkscape:window-x="0"
     inkscape:window-y="27"
     inkscape:window-maximized="1"
     inkscape:current-layer="svg11252"
     borderlayer="true" />
  <defs
     id="defs11254">
    <linearGradient
       id="linearGradient3129">
      <stop
         style="stop-color:#fce94f;stop-opacity:1"
         offset="0"
         id="stop3131" />
      <stop
         id="stop3139"
         offset="0.93476129"
         style="stop-color:#fce990;stop-opacity:1" />
      <stop
         style="stop-color:#fce94f;stop-opacity:0"
         offset="1"
         id="stop3133" />
    </linearGradient>
    <linearGradient
       id="linearGradient3179">
      <stop
         id="stop3181"
         offset="0"
         style="stop-color:#ffffff;stop-opacity:1" />
      <stop
         style="stop-color:#ffffff;stop-opacity:1"
         offset="0.69999999"
         id="stop3183" />
      <stop
         id="stop3185"
         offset="1"
         style="stop-color:#ffffff;stop-opacity:0;" />
    </linearGradient>
    <linearGradient
       id="linearGradient3162">
      <stop
         style="stop-color:#ffffff;stop-opacity:1"
         offset="0"
         id="stop3164" />
      <stop
         id="stop3166"
         offset="0.60000002"
         style="stop-color:#ffffff;stop-opacity:1" />
      <stop
         style="stop-color:#ffffff;stop-opacity:0;"
         offset="1"
         id="stop3168" />
    </linearGradient>
    <linearGradient
       inkscape:collect="always"
       id="linearGradient3903">
      <stop
         style="stop-color:#ffffff;stop-opacity:0.55714285"
         offset="0"
         id="stop3905" />
      <stop
         id="stop3911"
         offset="0.42558318"
         style="stop-color:#ffffff;stop-opacity:0.31764706;" />
      <stop
         style="stop-color:#ffffff;stop-opacity:0"
         offset="1"
         id="stop3907" />
    </linearGradient>
    <linearGradient
       inkscape:collect="always"
       id="linearGradient3019">
      <stop
         style="stop-color:#ffffff;stop-opacity:1"
         offset="0"
         id="stop3021" />
      <stop
         id="stop3797"
         offset="0.63684976"
         style="stop-color:#fdf08e;stop-opacity:1;" />
      <stop
         style="stop-color:#fce94f;stop-opacity:1"
         offset="1"
         id="stop3023" />
    </linearGradient>
    <linearGradient
       id="linearGradient3013">
      <stop
         id="stop3015"
         offset="0"
         style="stop-color:#ffffff;stop-opacity:1" />
      <stop
         style="stop-color:#ffffff;stop-opacity:1"
         offset="0.1"
         id="stop3799" />
      <stop
         id="stop3017"
         offset="1"
         style="stop-color:#ffffff;stop-opacity:0;" />
    </linearGradient>
    <radialGradient
       xlink:href="#linearGradient39563-4-2"
       id="radialGradient68155-2-3"
       gradientUnits="userSpaceOnUse"
       gradientTransform="matrix(1,0,0,0.3486842,0,317.8421)"
       cx="49"
       cy="488"
       fx="49"
       fy="488"
       r="38" />
    <linearGradient
       id="linearGradient39563-4-2">
      <stop
         style="stop-color:#ffffff;stop-opacity:1;"
         offset="0"
         id="stop39565-1-4" />
      <stop
         style="stop-color:#ffffff;stop-opacity:0;"
         offset="1"
         id="stop39567-7-9" />
    </linearGradient>
    <radialGradient
       xlink:href="#linearGradient39573-6-1"
       id="radialGradient68157-0-8"
       gradientUnits="userSpaceOnUse"
       cx="50.5"
       cy="487.5"
       fx="50.5"
       fy="487.5"
       r="10.5" />
    <linearGradient
       id="linearGradient39573-6-1">
      <stop
         style="stop-color:#ffffff;stop-opacity:1;"
         offset="0"
         id="stop39575-5-6" />
      <stop
         style="stop-color:#ffffff;stop-opacity:0;"
         offset="1"
         id="stop39577-1-2" />
    </linearGradient>
    <radialGradient
       inkscape:collect="always"
       xlink:href="#linearGradient3019"
       id="radialGradient3795"
       cx="-7.3749986"
       cy="-7.4099503"
       fx="-7.3749986"
       fy="-7.4099503"
       r="4.5769234"
       gradientUnits="userSpaceOnUse"
       gradientTransform="matrix(7.2738976,0,0,7.2738976,100.59241,101.68331)" />
    <radialGradient
       inkscape:collect="always"
       xlink:href="#linearGradient3903"
       id="radialGradient3909"
       cx="48.96875"
       cy="45.796875"
       fx="48.96875"
       fy="45.796875"
       r="45.6875"
       gradientTransform="matrix(1,0,0,0.999658,0,0.01566241)"
       gradientUnits="userSpaceOnUse" />
    <radialGradient
       inkscape:collect="always"
       xlink:href="#linearGradient3903-6"
       id="radialGradient3909-6"
       cx="48.96875"
       cy="45.796875"
       fx="48.96875"
       fy="45.796875"
       r="45.6875"
       gradientTransform="matrix(1,0,0,0.999658,0,0.01566241)"
       gradientUnits="userSpaceOnUse" />
    <linearGradient
       inkscape:collect="always"
       id="linearGradient3903-6">
      <stop
         style="stop-color:#ffffff;stop-opacity:0.55714285"
         offset="0"
         id="stop3905-8" />
      <stop
         id="stop3911-7"
         offset="0.42558318"
         style="stop-color:#ffffff;stop-opacity:0.31764706;" />
      <stop
         style="stop-color:#ffffff;stop-opacity:0"
         offset="1"
         id="stop3907-7" />
    </linearGradient>
    <radialGradient
       inkscape:collect="always"
       xlink:href="#linearGradient3903-6"
       id="radialGradient3925-6"
       gradientUnits="userSpaceOnUse"
       gradientTransform="matrix(1,0,0,0.999658,0,0.01566241)"
       cx="48.96875"
       cy="45.796875"
       fx="48.96875"
       fy="45.796875"
       r="45.6875" />
    <radialGradient
       inkscape:collect="always"
       xlink:href="#linearGradient3915-5"
       id="radialGradient3913-6"
       gradientUnits="userSpaceOnUse"
       gradientTransform="matrix(1,0,0,0.999658,0,0.01566241)"
       cx="48.96875"
       cy="45.796875"
       fx="48.96875"
       fy="45.796875"
       r="45.6875" />
    <linearGradient
       id="linearGradient3915-5"
       inkscape:collect="always">
      <stop
         id="stop3917-3"
         offset="0"
         style="stop-color:#ffffff;stop-opacity:0.25" />
      <stop
         style="stop-color:#ffffff;stop-opacity:0.18859649"
         offset="0.37528282"
         id="stop3919-7" />
      <stop
         id="stop3921-6"
         offset="1"
         style="stop-color:#ffffff;stop-opacity:0" />
    </linearGradient>
    <radialGradient
       r="45.6875"
       fy="45.796875"
       fx="48.96875"
       cy="45.796875"
       cx="48.96875"
       gradientTransform="matrix(1,0,0,0.999658,0,0.01566241)"
       gradientUnits="userSpaceOnUse"
       id="radialGradient3959"
       xlink:href="#linearGradient3915-5"
       inkscape:collect="always" />
    <radialGradient
       inkscape:collect="always"
       xlink:href="#linearGradient3129"
       id="radialGradient3137"
       cx="53.5"
       cy="48"
       fx="53.5"
       fy="48"
       r="55.895113"
       gradientTransform="matrix(1,0,0,0.8536525,0,7.0246786)"
       gradientUnits="userSpaceOnUse" />
    <filter
       inkscape:collect="always"
       id="filter3140">
      <feGaussianBlur
         inkscape:collect="always"
         stdDeviation="3.1692899"
         id="feGaussianBlur3142" />
    </filter>
    <radialGradient
       inkscape:collect="always"
       xlink:href="#linearGradient3129"
       id="radialGradient3144"
       gradientUnits="userSpaceOnUse"
       gradientTransform="matrix(1,0,0,0.8536525,0,7.0246786)"
       cx="53.5"
       cy="48"
       fx="53.5"
       fy="48"
       r="55.895113" />
    <filter
       inkscape:collect="always"
       id="filter3222"
       x="-0.108"
       width="1.216"
       y="-0.108"
       height="1.216">
      <feGaussianBlur
         inkscape:collect="always"
         stdDeviation="2.7352976"
         id="feGaussianBlur3224" />
    </filter>
    <filter
       inkscape:collect="always"
       id="filter3254">
      <feGaussianBlur
         inkscape:collect="always"
         stdDeviation="2.8472932"
         id="feGaussianBlur3256" />
    </filter>
    <filter
       inkscape:collect="always"
       id="filter3258">
      <feGaussianBlur
         inkscape:collect="always"
         stdDeviation="3.3218421"
         id="feGaussianBlur3260" />
    </filter>
  </defs>
  <g
     id="g3429">
    <g
       style="filter:url(#filter3222)"
       id="g3218">
      <path
         style="color:#000000;fill:#fff7b9;fill-opacity:1;fill-rule:nonzero;stroke:none;stroke-width:0.89604223000000005;marker:none;visibility:visible;display:inline;overflow:visible;enable-background:accumulate;"
         d="m 45.96875,0.5625 3.09375,19.125 c 0.746306,-0.115689 1.517067,-0.193116 2.28125,-0.25 l -5.375,-18.875 z M 61,0.5625 58.03125,19.71875 c 0.381929,0.06055 0.750794,0.115794 1.125,0.1875 0.04201,0.0084 0.08306,0.02267 0.125,0.03125 0.331879,0.0652 0.670247,0.138699 1,0.21875 L 61,0.5625 z m -29.3125,4.65625 8.84375,17.25 c 0.188545,-0.09599 0.37317,-0.189204 0.5625,-0.28125 0.08503,-0.04097 0.164509,-0.08485 0.25,-0.125 0.326413,-0.154991 0.665157,-0.295 1,-0.4375 0.09304,-0.03935 0.187711,-0.08661 0.28125,-0.125 L 31.6875,5.21875 z m 43.625,0 L 66.53125,22.5 c 0.617441,0.316253 1.222052,0.641235 1.8125,1 0.06436,0.0391 0.123477,0.0854 0.1875,0.125 L 75.3125,5.21875 z m -55.78125,8.8125 13.75,13.6875 C 33.593132,27.407825 33.922581,27.105317 34.25,26.8125 34.496117,26.588807 34.746175,26.371373 35,26.15625 l -15.46875,-12.125 z m 67.9375,0 L 73.75,27.75 c 0.276743,0.276743 0.546609,0.557885 0.8125,0.84375 0.04519,0.04903 0.08015,0.106908 0.125,0.15625 0.218935,0.238756 0.445976,0.471057 0.65625,0.71875 l 12.125,-15.4375 z M 10.6875,26.21875 28,34.96875 c 0.316253,-0.617441 0.641235,-1.222052 1,-1.8125 0.0391,-0.06436 0.0854,-0.123477 0.125,-0.1875 l -18.4375,-6.75 z m 85.625,0 -17.28125,8.8125 c 0.302898,0.594927 0.584147,1.196559 0.84375,1.8125 0.04306,0.101801 0.08309,0.210102 0.125,0.3125 L 96.3125,26.21875 z M 6.0625,40.5 l 19.15625,3 c 0.02975,-0.188966 0.06032,-0.374781 0.09375,-0.5625 0.04049,-0.239266 0.07934,-0.481971 0.125,-0.71875 0.06923,-0.338331 0.1377,-0.66613 0.21875,-1 L 6.0625,40.5 z m 94.875,0 -19.125,3.0625 c 0.0032,0.02041 -0.0031,0.04208 0,0.0625 0.05448,0.358718 0.117672,0.727534 0.15625,1.09375 C 81.97939,44.81236 81.99026,44.906113 82,45 c 0.02815,0.293111 0.04101,0.582103 0.0625,0.875 l 18.875,-5.375 z m -76,9.625 -18.875,5.375 19.125,-3.0625 c -0.0031,-0.02007 0.0031,-0.04239 0,-0.0625 C 25.1323,52.013764 25.072814,51.646795 25.03125,51.28125 25.021316,51.186949 25.009076,51.094516 25,51 24.9915,50.91827 25.0078,50.831931 25,50.75 24.98138,50.539945 24.95288,50.334694 24.9375,50.125 z M 81.78125,52.5 c -0.06095,0.387162 -0.116195,0.776778 -0.1875,1.15625 -0.0084,0.04201 -0.02267,0.08306 -0.03125,0.125 -0.0649,0.336541 -0.137631,0.665847 -0.21875,1 L 100.9375,55.5 81.78125,52.5 z M 27,58.84375 10.6875,69.78125 27.96875,60.96875 c -0.09482,-0.186236 -0.191422,-0.374968 -0.28125,-0.5625 -0.08006,-0.166149 -0.141824,-0.332087 -0.21875,-0.5 -0.114166,-0.251047 -0.23593,-0.494184 -0.34375,-0.75 C 27.08194,59.054449 27.04191,58.946148 27,58.84375 z m 52,2.1875 c -0.316253,0.617441 -0.641235,1.222052 -1,1.8125 -0.03886,0.06403 -0.08555,0.123712 -0.125,0.1875 l 18.4375,6.75 L 79,61.03125 z m -47.34375,5.5 -12.125,15.4375 13.6875,-13.75 c -0.05206,-0.05222 -0.104552,-0.103762 -0.15625,-0.15625 -0.320711,-0.32668 -0.632631,-0.658308 -0.9375,-1 -0.157841,-0.175515 -0.315584,-0.350828 -0.46875,-0.53125 z m 42.0625,1.75 c -0.274715,0.273871 -0.556769,0.553083 -0.84375,0.8125 -0.239768,0.220301 -0.502807,0.412877 -0.75,0.625 -0.04511,0.03852 -0.07971,0.08662 -0.125,0.125 l 15.46875,12.125 -13.75,-13.6875 z M 38.46875,72.375 31.6875,90.78125 40.46875,73.5 c -0.617441,-0.316253 -1.222052,-0.641235 -1.8125,-1 -0.06436,-0.0391 -0.123477,-0.0854 -0.1875,-0.125 z m 28,1.15625 c -0.343622,0.17495 -0.683452,0.338382 -1.03125,0.5 -0.262468,0.120568 -0.514581,0.230959 -0.78125,0.34375 -0.09416,0.04007 -0.186123,0.08595 -0.28125,0.125 l 10.9375,16.28125 -8.84375,-17.25 z m -19.75,2.3125 -0.75,19.59375 2.96875,-19.15625 C 48.904843,76.276036 48.876331,76.255287 48.84375,76.25 48.220068,76.148223 47.609453,76.04763 47,75.90625 46.906648,75.884808 46.812054,75.8664 46.71875,75.84375 z M 57.875,76.3125 c -0.665497,0.101686 -1.351507,0.163709 -2.03125,0.21875 -0.07363,0.0059 -0.14521,0.02586 -0.21875,0.03125 L 61,95.4375 57.9375,76.3125 c -0.02041,0.0032 -0.04208,-0.0031 -0.0625,0 z"
         id="path3869"
         inkscape:connector-curvature="0"
         transform="matrix(0.6406787,0,0,0.6406787,19.223691,17.247423)" />
      <path
         style="color:#000000;fill:#fff7b9;fill-opacity:1;fill-rule:nonzero;stroke:none;stroke-width:0.89604223000000005;marker:none;visibility:visible;display:inline;overflow:visible;enable-background:accumulate;"
         d="m 45.96875,0.5625 3.09375,19.125 c 0.746306,-0.115689 1.517067,-0.193116 2.28125,-0.25 l -5.375,-18.875 z M 61,0.5625 58.03125,19.71875 c 0.381929,0.06055 0.750794,0.115794 1.125,0.1875 0.04201,0.0084 0.08306,0.02267 0.125,0.03125 0.331879,0.0652 0.670247,0.138699 1,0.21875 L 61,0.5625 z m -29.3125,4.65625 8.84375,17.25 c 0.188545,-0.09599 0.37317,-0.189204 0.5625,-0.28125 0.08503,-0.04097 0.164509,-0.08485 0.25,-0.125 0.326413,-0.154991 0.665157,-0.295 1,-0.4375 0.09304,-0.03935 0.187711,-0.08661 0.28125,-0.125 L 31.6875,5.21875 z m 43.625,0 L 66.53125,22.5 c 0.617441,0.316253 1.222052,0.641235 1.8125,1 0.06436,0.0391 0.123477,0.0854 0.1875,0.125 L 75.3125,5.21875 z m -55.78125,8.8125 13.75,13.6875 C 33.593132,27.407825 33.922581,27.105317 34.25,26.8125 34.496117,26.588807 34.746175,26.371373 35,26.15625 l -15.46875,-12.125 z m 67.9375,0 L 73.75,27.75 c 0.276743,0.276743 0.546609,0.557885 0.8125,0.84375 0.04519,0.04903 0.08015,0.106908 0.125,0.15625 0.218935,0.238756 0.445976,0.471057 0.65625,0.71875 l 12.125,-15.4375 z M 10.6875,26.21875 28,34.96875 c 0.316253,-0.617441 0.641235,-1.222052 1,-1.8125 0.0391,-0.06436 0.0854,-0.123477 0.125,-0.1875 l -18.4375,-6.75 z m 85.625,0 -17.28125,8.8125 c 0.302898,0.594927 0.584147,1.196559 0.84375,1.8125 0.04306,0.101801 0.08309,0.210102 0.125,0.3125 L 96.3125,26.21875 z M 6.0625,40.5 l 19.15625,3 c 0.02975,-0.188966 0.06032,-0.374781 0.09375,-0.5625 0.04049,-0.239266 0.07934,-0.481971 0.125,-0.71875 0.06923,-0.338331 0.1377,-0.66613 0.21875,-1 L 6.0625,40.5 z m 94.875,0 -19.125,3.0625 c 0.0032,0.02041 -0.0031,0.04208 0,0.0625 0.05448,0.358718 0.117672,0.727534 0.15625,1.09375 C 81.97939,44.81236 81.99026,44.906113 82,45 c 0.02815,0.293111 0.04101,0.582103 0.0625,0.875 l 18.875,-5.375 z m -76,9.625 -18.875,5.375 19.125,-3.0625 c -0.0031,-0.02007 0.0031,-0.04239 0,-0.0625 C 25.1323,52.013764 25.072814,51.646795 25.03125,51.28125 25.021316,51.186949 25.009076,51.094516 25,51 24.9915,50.91827 25.0078,50.831931 25,50.75 24.98138,50.539945 24.95288,50.334694 24.9375,50.125 z M 81.78125,52.5 c -0.06095,0.387162 -0.116195,0.776778 -0.1875,1.15625 -0.0084,0.04201 -0.02267,0.08306 -0.03125,0.125 -0.0649,0.336541 -0.137631,0.665847 -0.21875,1 L 100.9375,55.5 81.78125,52.5 z M 27,58.84375 10.6875,69.78125 27.96875,60.96875 c -0.09482,-0.186236 -0.191422,-0.374968 -0.28125,-0.5625 -0.08006,-0.166149 -0.141824,-0.332087 -0.21875,-0.5 -0.114166,-0.251047 -0.23593,-0.494184 -0.34375,-0.75 C 27.08194,59.054449 27.04191,58.946148 27,58.84375 z m 52,2.1875 c -0.316253,0.617441 -0.641235,1.222052 -1,1.8125 -0.03886,0.06403 -0.08555,0.123712 -0.125,0.1875 l 18.4375,6.75 L 79,61.03125 z m -47.34375,5.5 -12.125,15.4375 13.6875,-13.75 c -0.05206,-0.05222 -0.104552,-0.103762 -0.15625,-0.15625 -0.320711,-0.32668 -0.632631,-0.658308 -0.9375,-1 -0.157841,-0.175515 -0.315584,-0.350828 -0.46875,-0.53125 z m 42.0625,1.75 c -0.274715,0.273871 -0.556769,0.553083 -0.84375,0.8125 -0.239768,0.220301 -0.502807,0.412877 -0.75,0.625 -0.04511,0.03852 -0.07971,0.08662 -0.125,0.125 l 15.46875,12.125 -13.75,-13.6875 z M 38.46875,72.375 31.6875,90.78125 40.46875,73.5 c -0.617441,-0.316253 -1.222052,-0.641235 -1.8125,-1 -0.06436,-0.0391 -0.123477,-0.0854 -0.1875,-0.125 z m 28,1.15625 c -0.343622,0.17495 -0.683452,0.338382 -1.03125,0.5 -0.262468,0.120568 -0.514581,0.230959 -0.78125,0.34375 -0.09416,0.04007 -0.186123,0.08595 -0.28125,0.125 l 10.9375,16.28125 -8.84375,-17.25 z m -19.75,2.3125 -0.75,19.59375 2.96875,-19.15625 C 48.904843,76.276036 48.876331,76.255287 48.84375,76.25 48.220068,76.148223 47.609453,76.04763 47,75.90625 46.906648,75.884808 46.812054,75.8664 46.71875,75.84375 z M 57.875,76.3125 c -0.665497,0.101686 -1.351507,0.163709 -2.03125,0.21875 -0.07363,0.0059 -0.14521,0.02586 -0.21875,0.03125 L 61,95.4375 57.9375,76.3125 c -0.02041,0.0032 -0.04208,-0.0031 -0.0625,0 z"
         id="path3869-0"
         inkscape:connector-curvature="0"
         transform="matrix(0.5584761,0,0,0.5584761,23.62153,21.193148)" />
    </g>
    <path
       transform="matrix(0.92859163,0,0,-0.98025982,3.8203456,95.052472)"
       inkscape:connector-curvature="0"
       id="path3869-8"
       d="m 46,0.5625 0.71875,19.59375 c 0.74249,-0.180247 1.486141,-0.316394 2.25,-0.4375 L 46,0.5625 z m 15.03125,0 -5.375,18.875 c 0.764183,0.05688 1.534944,0.134311 2.28125,0.25 L 61.03125,0.5625 z M 31.6875,5.21875 38.46875,23.625 c 0.651407,-0.402872 1.31526,-0.774277 2,-1.125 L 31.6875,5.21875 z m 43.625,0 L 64.375,21.5 c 0.717868,0.294655 1.406506,0.61885 2.09375,0.96875 l 8.84375,-17.25 z m -55.78125,8.8125 12.125,15.4375 C 32.163138,28.871659 32.696514,28.303486 33.25,27.75 L 19.53125,14.03125 z m 67.9375,0 L 72,26.15625 c 0.592223,0.501924 1.169321,1.014757 1.71875,1.5625 l 13.75,-13.6875 z M 10.6875,26.21875 27,37.15625 c 0.297567,-0.727039 0.614557,-1.429323 0.96875,-2.125 L 10.6875,26.21875 z m 85.625,0 -18.4375,6.75 c 0.402872,0.651407 0.774277,1.31526 1.125,2 l 17.3125,-8.75 z M 6.0625,40.5 l 18.875,5.375 c 0.05683,-0.774688 0.132755,-1.556156 0.25,-2.3125 L 6.0625,40.5 z m 94.875,0 -19.59375,0.71875 c 0.182652,0.752397 0.315595,1.506927 0.4375,2.28125 l 19.15625,-3 z m -18.875,9.625 c -0.05683,0.774688 -0.132755,1.556156 -0.25,2.3125 L 100.9375,55.5 82.0625,50.125 z M 25.21875,52.5 6.0625,55.5 25.65625,54.78125 C 25.473598,54.028853 25.340655,53.274323 25.21875,52.5 z M 80,58.84375 c -0.297567,0.727039 -0.614557,1.429323 -0.96875,2.125 L 96.3125,69.78125 80,58.84375 z m -52,2.1875 -17.3125,8.75 18.4375,-6.75 c -0.402872,-0.651407 -0.774277,-1.31526 -1.125,-2 z m 47.34375,5.5 c -0.497329,0.585831 -1.020287,1.143618 -1.5625,1.6875 l 13.6875,13.75 -12.125,-15.4375 z m -42.0625,1.75 -13.75,13.6875 L 35,69.84375 c -0.592223,-0.501924 -1.169321,-1.014757 -1.71875,-1.5625 z m 35.25,4.09375 c -0.651407,0.402872 -1.31526,0.774277 -2,1.125 L 75.3125,90.78125 68.53125,72.375 z m -28,1.15625 -8.84375,17.25 L 42.625,74.5 c -0.717868,-0.294655 -1.406506,-0.61885 -2.09375,-0.96875 z m 19.75,2.3125 c -0.732582,0.177842 -1.465348,0.317215 -2.21875,0.4375 l 2.96875,19.15625 -0.75,-19.59375 z M 49.0625,76.3125 46,95.4375 51.375,76.5625 c -0.774688,-0.05683 -1.556156,-0.132755 -2.3125,-0.25 z"
       style="opacity:0.75000000000000000;color:#000000;fill:url(#radialGradient3144);fill-opacity:1;fill-rule:nonzero;stroke:none;stroke-width:0.89604223000000005;marker:none;visibility:visible;display:inline;overflow:visible;enable-background:accumulate;filter:url(#filter3254)" />
    <path
       transform="matrix(-0.76767322,0,0,0.81038769,94.570513,9.1013961)"
       inkscape:connector-curvature="0"
       id="path3869-8-9"
       d="m 46,0.5625 0.71875,19.59375 c 0.74249,-0.180247 1.486141,-0.316394 2.25,-0.4375 L 46,0.5625 z m 15.03125,0 -5.375,18.875 c 0.764183,0.05688 1.534944,0.134311 2.28125,0.25 L 61.03125,0.5625 z M 31.6875,5.21875 38.46875,23.625 c 0.651407,-0.402872 1.31526,-0.774277 2,-1.125 L 31.6875,5.21875 z m 43.625,0 L 64.375,21.5 c 0.717868,0.294655 1.406506,0.61885 2.09375,0.96875 l 8.84375,-17.25 z m -55.78125,8.8125 12.125,15.4375 C 32.163138,28.871659 32.696514,28.303486 33.25,27.75 L 19.53125,14.03125 z m 67.9375,0 L 72,26.15625 c 0.592223,0.501924 1.169321,1.014757 1.71875,1.5625 l 13.75,-13.6875 z M 10.6875,26.21875 27,37.15625 c 0.297567,-0.727039 0.614557,-1.429323 0.96875,-2.125 L 10.6875,26.21875 z m 85.625,0 -18.4375,6.75 c 0.402872,0.651407 0.774277,1.31526 1.125,2 l 17.3125,-8.75 z M 6.0625,40.5 l 18.875,5.375 c 0.05683,-0.774688 0.132755,-1.556156 0.25,-2.3125 L 6.0625,40.5 z m 94.875,0 -19.59375,0.71875 c 0.182652,0.752397 0.315595,1.506927 0.4375,2.28125 l 19.15625,-3 z m -18.875,9.625 c -0.05683,0.774688 -0.132755,1.556156 -0.25,2.3125 L 100.9375,55.5 82.0625,50.125 z M 25.21875,52.5 6.0625,55.5 25.65625,54.78125 C 25.473598,54.028853 25.340655,53.274323 25.21875,52.5 z M 80,58.84375 c -0.297567,0.727039 -0.614557,1.429323 -0.96875,2.125 L 96.3125,69.78125 80,58.84375 z m -52,2.1875 -17.3125,8.75 18.4375,-6.75 c -0.402872,-0.651407 -0.774277,-1.31526 -1.125,-2 z m 47.34375,5.5 c -0.497329,0.585831 -1.020287,1.143618 -1.5625,1.6875 l 13.6875,13.75 -12.125,-15.4375 z m -42.0625,1.75 -13.75,13.6875 L 35,69.84375 c -0.592223,-0.501924 -1.169321,-1.014757 -1.71875,-1.5625 z m 35.25,4.09375 c -0.651407,0.402872 -1.31526,0.774277 -2,1.125 L 75.3125,90.78125 68.53125,72.375 z m -28,1.15625 -8.84375,17.25 L 42.625,74.5 c -0.717868,-0.294655 -1.406506,-0.61885 -2.09375,-0.96875 z m 19.75,2.3125 c -0.732582,0.177842 -1.465348,0.317215 -2.21875,0.4375 l 2.96875,19.15625 -0.75,-19.59375 z M 49.0625,76.3125 46,95.4375 51.375,76.5625 c -0.774688,-0.05683 -1.556156,-0.132755 -2.3125,-0.25 z"
       style="color:#000000;fill:#fff7b9;fill-opacity:1;fill-rule:nonzero;stroke:none;stroke-width:0.89604223000000005;marker:none;visibility:visible;display:inline;overflow:visible;enable-background:accumulate;filter:url(#filter3258)" />
  </g>
</svg>
