<?xml version="1.0" encoding="UTF-8" standalone="no"?>
<svg
   xmlns:dc="http://purl.org/dc/elements/1.1/"
   xmlns:cc="http://creativecommons.org/ns#"
   xmlns:rdf="http://www.w3.org/1999/02/22-rdf-syntax-ns#"
   xmlns:svg="http://www.w3.org/2000/svg"
   xmlns="http://www.w3.org/2000/svg"
   xmlns:xlink="http://www.w3.org/1999/xlink"
   xmlns:sodipodi="http://sodipodi.sourceforge.net/DTD/sodipodi-0.dtd"
   xmlns:inkscape="http://www.inkscape.org/namespaces/inkscape"
   version="1.0"
   id="Foreground"
   x="0px"
   y="0px"
   width="32"
   height="32"
   viewBox="0 0 23.272727 23.272727"
   enable-background="new 0 0 16 16"
   xml:space="preserve"
   sodipodi:version="0.32"
   inkscape:version="0.48.1 r9760"
   sodipodi:docname="close-window.svg"
   inkscape:output_extension="org.inkscape.output.svg.inkscape"><metadata
   id="metadata2399"><rdf:RDF><cc:Work
       rdf:about=""><dc:format>image/svg+xml</dc:format><dc:type
         rdf:resource="http://purl.org/dc/dcmitype/StillImage" /><dc:title /></cc:Work></rdf:RDF></metadata><defs
   id="defs2397"><linearGradient
     inkscape:collect="always"
     id="linearGradient3817"><stop
       style="stop-color:#000000;stop-opacity:1;"
       offset="0"
       id="stop3819" /><stop
       style="stop-color:#2e3436;stop-opacity:1"
       offset="1"
       id="stop3821" /></linearGradient><linearGradient
     id="linearGradient3753"
     inkscape:collect="always"><stop
       id="stop3755"
       offset="0"
       style="stop-color:#7b7b7b;stop-opacity:1" /><stop
       style="stop-color:#3f3f3f;stop-opacity:1;"
       offset="0.60357028"
       id="stop3759" /><stop
       id="stop3761"
       offset="0.77175856"
       style="stop-color:#252525;stop-opacity:1;" /><stop
       id="stop3757"
       offset="1"
       style="stop-color:#101010;stop-opacity:1" /></linearGradient><filter
     color-interpolation-filters="sRGB"
     inkscape:collect="always"
     id="filter16494-4"
     x="-0.20989846"
     width="1.4197969"
     y="-0.20903821"
     height="1.4180764"><feGaussianBlur
       inkscape:collect="always"
       stdDeviation="1.3282637"
       id="feGaussianBlur16496-8" /></filter><radialGradient
     inkscape:collect="always"
     xlink:href="#linearGradient16498-6"
     id="radialGradient16504-1"
     cx="7.6582627"
     cy="5.8191104"
     fx="7.6582627"
     fy="5.8191104"
     r="8.6928644"
     gradientTransform="matrix(1.0474339,0,0,1.0517402,-0.3632615,-0.42032492)"
     gradientUnits="userSpaceOnUse" /><linearGradient
     inkscape:collect="always"
     id="linearGradient16498-6"><stop
       style="stop-color:#7b7b7b;stop-opacity:1"
       offset="0"
       id="stop16500-8" /><stop
       style="stop-color:#101010;stop-opacity:1"
       offset="1"
       id="stop16502-0" /></linearGradient><filter
     color-interpolation-filters="sRGB"
     inkscape:collect="always"
     id="filter16524-9"
     x="-0.212979"
     width="1.425958"
     y="-0.21305652"
     height="1.426113"><feGaussianBlur
       inkscape:collect="always"
       stdDeviation="0.71020915"
       id="feGaussianBlur16526-0" /></filter><radialGradient
     inkscape:collect="always"
     xlink:href="#linearGradient16498-6"
     id="radialGradient3690"
     gradientUnits="userSpaceOnUse"
     gradientTransform="matrix(1.0474339,0,0,1.0517402,-0.3632615,-0.42032492)"
     cx="7.6582627"
     cy="5.8191104"
     fx="7.6582627"
     fy="5.8191104"
     r="8.6928644" /><linearGradient
     inkscape:collect="always"
     id="linearGradient16498-6-1"><stop
       style="stop-color:#7b7b7b;stop-opacity:1"
       offset="0"
       id="stop16500-8-7" /><stop
       style="stop-color:#101010;stop-opacity:1"
       offset="1"
       id="stop16502-0-1" /></linearGradient><radialGradient
     r="8.6928644"
     fy="5.8191104"
     fx="7.6582627"
     cy="5.8191104"
     cx="7.6582627"
     gradientTransform="matrix(1.0045263,0,0,1.0039338,3.943437,3.4806465)"
     gradientUnits="userSpaceOnUse"
     id="radialGradient3714"
     xlink:href="#linearGradient16498-6-1"
     inkscape:collect="always" /><radialGradient
     inkscape:collect="always"
     xlink:href="#linearGradient3753"
     id="radialGradient3751"
     gradientUnits="userSpaceOnUse"
     gradientTransform="matrix(0.88998186,0,0,0.70837237,4.8206485,5.2005508)"
     cx="7.6582627"
     cy="5.8191104"
     fx="7.6582627"
     fy="5.8191104"
     r="8.6928644" /><radialGradient
     inkscape:collect="always"
     xlink:href="#linearGradient16498-6-1"
     id="radialGradient3767"
     gradientUnits="userSpaceOnUse"
     gradientTransform="matrix(1.0045263,0,0,1.0039338,3.943437,3.4806465)"
     cx="7.6582627"
     cy="5.8191104"
     fx="7.6582627"
     fy="5.8191104"
     r="8.6928644" /><radialGradient
     inkscape:collect="always"
     xlink:href="#linearGradient3753"
     id="radialGradient3769"
     gradientUnits="userSpaceOnUse"
     gradientTransform="matrix(0.88994914,0,0,0.70834633,4.8208988,5.2007874)"
     cx="7.6582627"
     cy="5.8191104"
     fx="7.6582627"
     fy="5.8191104"
     r="8.6928644" /><filter
     inkscape:collect="always"
     id="filter3775"
     x="-0.18"
     width="1.36"
     y="-0.18"
     height="1.36"><feGaussianBlur
       inkscape:collect="always"
       stdDeviation="1.2"
       id="feGaussianBlur3777" /></filter><linearGradient
     inkscape:collect="always"
     xlink:href="#linearGradient3817"
     id="linearGradient3823"
     x1="11.868967"
     y1="8.3581133"
     x2="11.868967"
     y2="14.779202"
     gradientUnits="userSpaceOnUse" /></defs><sodipodi:namedview
   inkscape:window-height="844"
   inkscape:window-width="1438"
   inkscape:pageshadow="2"
   inkscape:pageopacity="0"
   guidetolerance="10.0"
   gridtolerance="10.0"
   objecttolerance="10.0"
   borderopacity="1.0"
   bordercolor="#666666"
   pagecolor="#000000"
   id="base"
   showgrid="false"
   inkscape:zoom="1"
   inkscape:cx="16.954172"
   inkscape:cy="8.7280985"
   inkscape:window-x="0"
   inkscape:window-y="27"
   inkscape:current-layer="Foreground"
   showguides="true"
   inkscape:guide-bbox="true"
   borderlayer="true"
   inkscape:showpageshadow="false"
   inkscape:window-maximized="0"><inkscape:grid
     type="xygrid"
     id="grid11246"
     empspacing="5"
     visible="true"
     enabled="true"
     snapvisiblegridlinesonly="true" /></sodipodi:namedview>

<path
   sodipodi:type="inkscape:offset"
   inkscape:radius="0"
   inkscape:original="M 12.375 2.90625 C 7.9570006 2.90625 4.375 6.4882502 4.375 10.90625 C 4.375 15.324252 7.9570006 18.90625 12.375 18.90625 C 16.793 18.90625 20.375 15.324251 20.375 10.90625 C 20.375 6.4882502 16.793 2.90625 12.375 2.90625 z "
   xlink:href="#path2394-32"
   style="opacity:0.6;color:#000000;fill:#000000;fill-opacity:1;fill-rule:nonzero;stroke:#000000;stroke-width:2.69712043000000001;stroke-linecap:butt;stroke-linejoin:miter;stroke-miterlimit:4;stroke-opacity:1;stroke-dasharray:none;stroke-dashoffset:0;marker:none;visibility:visible;display:inline;overflow:visible;filter:url(#filter3775);enable-background:accumulate"
   id="path16480-5"
   inkscape:href="#path2394-32"
   d="m 12.375,2.90625 c -4.4179994,0 -8,3.5820002 -8,8 0,4.418002 3.5820006,8 8,8 4.418,0 8,-3.581999 8,-8 0,-4.4179998 -3.582,-8 -8,-8 z"
   transform="matrix(0.97493316,0,0,0.67121499,-0.4284343,7.4608944)" /><path
   clip-rule="evenodd"
   d="m 4.3636363,10.909091 c 0,-4.4179998 3.5820003,-7.9999996 7.9999997,-7.9999996 4.418,0 8,3.5819998 8,7.9999996 0,4.418001 -3.582,8 -8,8 -4.4179994,0 -7.9999997,-3.581999 -7.9999997,-8.000001 z"
   id="path2394-32"
   style="color:#000000;fill:none;fill-opacity:1;fill-rule:nonzero;stroke:none;stroke-width:1.45454550000000005;stroke-linecap:butt;stroke-linejoin:miter;stroke-miterlimit:4;stroke-opacity:1;stroke-dasharray:none;stroke-dashoffset:0;marker:none;visibility:visible;display:inline;overflow:visible;enable-background:accumulate"
   sodipodi:nodetypes="csssc"
   inkscape:connector-curvature="0" /><path
   transform="translate(0,1.3535534)"
   d="m 8.71875,8.03125 0,0.75 C 8.7028155,8.9854318 8.7842331,9.1709509 8.9375,9.3125 l 1.65625,1.65625 -1.65625,1.625 C 8.8006345,12.730601 8.7187478,12.932062 8.71875,13.125 l 0,0.71875 0.75,0 c 0.192938,0 0.363154,-0.05063 0.5,-0.1875 L 11.625,12 l 1.65625,1.65625 c 0.136847,0.136835 0.338304,0.187493 0.53125,0.1875 l 0.71875,0 0,-0.71875 c -6e-6,-0.192946 -0.05064,-0.394399 -0.1875,-0.53125 l -1.625,-1.625 L 14.375,9.3125 c 0.156848,-0.1449818 0.15625,-0.3229082 0.15625,-0.53125 l 0,-0.75 -0.71875,0 c -0.175147,0.00509 -0.306818,0.082364 -0.5,0.25 L 11.625,9.9375 9.96875,8.28125 c -0.129185,-0.1337598 -0.314581,-0.24185 -0.5,-0.25 l -0.75,0 z"
   inkscape:href="#path27279-0-5"
   id="path16506-5"
   style="font-size:medium;font-style:normal;font-variant:normal;font-weight:normal;font-stretch:normal;text-indent:0;text-align:start;text-decoration:none;line-height:normal;letter-spacing:normal;word-spacing:normal;text-transform:none;direction:ltr;block-progression:tb;writing-mode:lr-tb;text-anchor:start;color:#bebebe;fill:#000000;fill-opacity:1;fill-rule:nonzero;stroke:none;stroke-width:1.78124988;marker:none;visibility:visible;display:inline;overflow:visible;filter:url(#filter16524-9);enable-background:new;font-family:Andale Mono;-inkscape-font-specification:Andale Mono"
   xlink:href="#path27279-0-5"
   inkscape:original="M 8.71875 8.71875 L 8.71875 9.46875 C 8.7028155 9.6729318 8.7842331 9.858451 8.9375 10 L 10.59375 11.65625 L 8.9375 13.28125 C 8.8006345 13.418101 8.7187478 13.619562 8.71875 13.8125 L 8.71875 14.53125 L 9.46875 14.53125 C 9.661688 14.53125 9.831904 14.480615 9.96875 14.34375 L 11.625 12.6875 L 13.28125 14.34375 C 13.418097 14.480585 13.619554 14.531243 13.8125 14.53125 L 14.53125 14.53125 L 14.53125 13.8125 C 14.531244 13.619554 14.480614 13.418101 14.34375 13.28125 L 12.71875 11.65625 L 14.375 10 C 14.531848 9.8550183 14.53125 9.6770918 14.53125 9.46875 L 14.53125 8.71875 L 13.8125 8.71875 C 13.637353 8.7238409 13.505682 8.8011136 13.3125 8.96875 L 11.625 10.625 L 9.96875 8.96875 C 9.839565 8.8349902 9.654169 8.7269 9.46875 8.71875 L 8.71875 8.71875 z "
   inkscape:radius="0"
   sodipodi:type="inkscape:offset" /><g
   id="g3763"
   transform="matrix(0.95241597,0,0,0.95241597,0.55370507,0.55370521)"><path
     inkscape:connector-curvature="0"
     sodipodi:nodetypes="csssc"
     style="opacity:0.5;color:#000000;fill:url(#radialGradient3767);fill-opacity:1;fill-rule:nonzero;stroke:#2e3436;stroke-width:3.05443287;stroke-linecap:butt;stroke-linejoin:miter;stroke-miterlimit:4;stroke-opacity:1;stroke-dasharray:none;stroke-dashoffset:0;marker:none;visibility:visible;display:inline;overflow:visible;enable-background:accumulate"
     id="path2394-32-9"
     d="m 4,11.636363 c 0,-4.2171813 3.4191819,-7.6363633 7.636364,-7.6363633 4.217181,0 7.636363,3.419182 7.636363,7.6363633 0,4.217183 -3.419182,7.636364 -7.636363,7.636364 C 7.4191819,19.272727 4,15.853546 4,11.636362 z"
     clip-rule="evenodd" /><path
     clip-rule="evenodd"
     d="m 4.0002805,11.636363 c 0,-4.2170262 3.4190564,-7.6360826 7.6360825,-7.6360826 4.217026,0 7.636083,3.4190564 7.636083,7.6360826 0,4.217028 -3.419057,7.636083 -7.636083,7.636083 -4.2170261,0 -7.6360825,-3.419055 -7.6360825,-7.636084 z"
     id="path3749"
     style="color:#000000;fill:url(#radialGradient3769);fill-opacity:1;fill-rule:nonzero;stroke:#eeeeec;stroke-width:1.52721655;stroke-linecap:butt;stroke-linejoin:miter;stroke-miterlimit:4;stroke-opacity:1;stroke-dasharray:none;stroke-dashoffset:0;marker:none;visibility:visible;display:inline;overflow:visible;enable-background:accumulate"
     sodipodi:nodetypes="csssc"
     inkscape:connector-curvature="0" /></g><path
   d="m 8.7284149,8.7273575 0.7272728,0 c 0.0075,-8.72e-5 0.01512,-3.345e-4 0.02273,0 0.1854188,0.00815 0.3708148,0.093513 0.4999998,0.2272728 l 1.6590913,1.6590917 1.681818,-1.6590917 c 0.193182,-0.1676364 0.324853,-0.2221819 0.5,-0.2272728 l 0.727273,0 0,0.7272729 c 0,0.2083417 -0.02497,0.4004726 -0.181818,0.5454546 l -1.659091,1.659091 1.636364,1.636363 c 0.136864,0.136851 0.204539,0.329782 0.204545,0.522728 l 0,0.727272 -0.727273,0 c -0.192946,-7e-6 -0.38588,-0.06771 -0.522727,-0.204545 l -1.659091,-1.659091 -1.6590913,1.659091 c -0.136846,0.136865 -0.329789,0.204545 -0.522727,0.204545 l -0.7272728,0 0,-0.727272 c -2.2e-6,-0.192938 0.06768,-0.385877 0.2045455,-0.522728 L 10.592052,11.659176 8.9329604,10.000085 C 8.7796935,9.8585357 8.7124804,9.6588121 8.7284149,9.4546304 z"
   inkscape:connector-curvature="0"
   id="path27279-0-5-4"
   style="font-size:medium;font-style:normal;font-variant:normal;font-weight:normal;font-stretch:normal;text-indent:0;text-align:start;text-decoration:none;line-height:normal;letter-spacing:normal;word-spacing:normal;text-transform:none;direction:ltr;block-progression:tb;writing-mode:lr-tb;text-anchor:start;color:#bebebe;fill:none;fill-opacity:1;fill-rule:nonzero;stroke:url(#linearGradient3823);stroke-width:1.45454543999999997;marker:none;visibility:visible;display:inline;overflow:visible;enable-background:new;font-family:Andale Mono;-inkscape-font-specification:Andale Mono;stroke-opacity:1;stroke-miterlimit:4;stroke-dasharray:none;opacity:0.25"
   sodipodi:nodetypes="ccsccccccccccccccccccccccc" /><path
   d="m 8.728415,8.7273578 0.7272728,0 c 0.0075,-8.72e-5 0.01512,-3.345e-4 0.02273,0 0.185419,0.00815 0.370815,0.093513 0.5,0.2272728 l 1.6590912,1.6590914 1.681818,-1.6590914 c 0.193182,-0.1676364 0.324853,-0.2221819 0.5,-0.2272728 l 0.727273,0 0,0.7272728 c 0,0.2083418 -0.02497,0.4004727 -0.181818,0.5454544 l -1.659091,1.659091 1.636364,1.636363 c 0.136864,0.136851 0.204539,0.329782 0.204545,0.522728 l 0,0.727272 -0.727273,0 c -0.192946,-7e-6 -0.38588,-0.06771 -0.522727,-0.204545 l -1.659091,-1.659091 -1.6590912,1.659091 c -0.136846,0.136865 -0.329789,0.204545 -0.522727,0.204545 l -0.7272728,0 0,-0.727272 c -2.2e-6,-0.192938 0.06768,-0.385877 0.2045455,-0.522728 L 10.592052,11.659176 8.9329605,10.000085 C 8.7796936,9.858536 8.7124805,9.6588124 8.728415,9.4546306 z"
   inkscape:connector-curvature="0"
   id="path27279-0-5"
   style="font-size:medium;font-style:normal;font-variant:normal;font-weight:normal;font-stretch:normal;text-indent:0;text-align:start;text-decoration:none;line-height:normal;letter-spacing:normal;word-spacing:normal;text-transform:none;direction:ltr;block-progression:tb;writing-mode:lr-tb;text-anchor:start;color:#bebebe;fill:#ffffff;fill-opacity:1;fill-rule:nonzero;stroke:none;stroke-width:1.78124988;marker:none;visibility:visible;display:inline;overflow:visible;enable-background:new;font-family:Andale Mono;-inkscape-font-specification:Andale Mono"
   sodipodi:nodetypes="ccsccccccccccccccccccccccc" /></svg>